<?xml version="1.0" encoding="utf-8"?>
<svg data-name="Layer 1" width="567.33753" height="478.01621" viewBox="0 0 567.33753 478.01621" xmlns="http://www.w3.org/2000/svg">
  <path d="M441.80646,255.71162c-3.52922-12.86713,24.9356-23.90094,32.41041-13.539,1.03939-1.47315,4.88056-2.368,6.643-1.91606a13.74418,13.74418,0,0,1,4.69075,2.67528c1.98838,1.52743,4.049,3.10909,5.26914,5.30532,1.22921,2.1872,1.419,5.16979-.23494,7.06776-1.31053,1.50934-5.17884,2.48546-7.14913,2.88314-1.37374.28018-2.53064.50613-3.5248.66881a6.73914,6.73914,0,0,1-1.175-4.45575,5.46972,5.46972,0,0,0-2.386,4.01289c-.02714.3344,11.10773,41.30387,11.10773,41.30387a24.28681,24.28681,0,0,1-4.20271,1.88892,52.848,52.848,0,0,1-6.55258-14.2801,45.762,45.762,0,0,0,.12654,10.1678,55.94778,55.94778,0,0,0,.958,5.63069c-13.23171,2.856-33.13345,1.91611-41.79191-10.231l-.00436-.15087a2.067,2.067,0,0,0-3.993-.72082c-.21008.53592-.40341.9998-.57594,1.36877C428.90016,284.37123,432.16288,273.9323,441.80646,255.71162Z" transform="translate(-316.33123 -210.99189)" fill="#2f2e41"/>
  <polygon points="187.875 456.283 197.734 456.2 202.098 417.287 187.548 417.41 187.875 456.283" fill="#ffb6b6"/>
  <path d="M533.85336,679.3431,518.1076,668.66324l-.05942-7.05495-3.38609.22675-10.49558.7235-2.57316.17119-1.86759,24.93457,7.396-.06707,1.26029-6.991,3.43148,6.95557,19.6013-.16355a4.40843,4.40843,0,0,0,2.43855-8.0551Z" transform="translate(-316.33123 -210.99189)" fill="#2f2e41"/>
  <polygon points="89.571 452.439 99.318 453.92 109.798 416.192 95.412 414.006 89.571 452.439" fill="#ffb6b6"/>
  <path d="M433.26053,680.04779l-13.85287-13.04173,1.06012-6.97509-3.3792-.3131-10.4775-.95007-2.56775-.239-5.79815,24.32287,7.313,1.10665,2.353-6.70271,2.285,7.41171,19.37919,2.947a4.40843,4.40843,0,0,0,3.6851-7.56645Z" transform="translate(-316.33123 -210.99189)" fill="#2f2e41"/>
  <path d="M499.67192,395.41264l27.95281,50.06412s-1.16636,102.9647,2.54851,106.7837,7.07835,7.24421,3.71487,7.21334-7.43443,8.15323-7.43443,8.15323l-6.957,77.36439h-17.543s-12.344-45.623-9.71291-71.64l-20.7821-95.07681S456.5282,568.188,453.83742,570.87875s-4.31392,2.67163-1.48427,5.372,0,8.80758,0,8.80758l-29.49756,61.22087-16-2.01786s2.77383-49.97893,12.433-71.43483V471.43165c-.7276,8.69349,33.30327-79.29559,12.49294-72.69149C438.36543,396.65077,499.67192,395.41264,499.67192,395.41264Z" transform="translate(-316.33123 -210.99189)" fill="#2f2e41"/>
  <path d="M422.31825,481.80526a6.82106,6.82106,0,0,0-.70245-9.48793,6.544,6.544,0,0,0-.87624-.63441l4.75113-23.31742-10.98351-6.57368-3.055,32.64564a6.80215,6.80215,0,0,0,1.56779,8.15507,6.50964,6.50964,0,0,0,9.183-.65062Q422.26153,481.87438,422.31825,481.80526Z" transform="translate(-316.33123 -210.99189)" fill="#ffb6b6"/>
  <path d="M593.23273,430.7538a6.82106,6.82106,0,0,1-5.81566-7.52944,6.54326,6.54326,0,0,1,.22821-1.05744l-19.1125-14.177,3.78154-12.2291,24.08207,22.25141a6.80214,6.80214,0,0,1,4.28133,7.1157,6.50963,6.50963,0,0,1-7.2679,5.65052Q593.32111,430.76733,593.23273,430.7538Z" transform="translate(-316.33123 -210.99189)" fill="#ffb6b6"/>
  <circle cx="147.59363" cy="59.32154" r="23.18303" fill="#ffb6b6"/>
  <path d="M437.82556,245.39918" transform="translate(-316.33123 -210.99189)" fill="#2f2e41"/>
  <polygon points="483.533 453.271 475.415 458.549 451.193 429.75 463.174 421.96 483.533 453.271" fill="#ffb6b6"/>
  <path d="M805.65683,672.54554,780.69422,688.7771l-.20526-.31565a11.59019,11.59019,0,0,1,3.39785-16.0339l.0006-.00039,2.31017-6.42421,10.757-2.07248,2.17906-1.417Z" transform="translate(-316.33123 -210.99189)" fill="#2f2e41"/>
  <polygon points="344.417 467.102 334.734 467.101 330.128 429.753 344.419 429.754 344.417 467.102" fill="#ffb6b6"/>
  <path d="M661.089,688.19491l-29.77576-.00113v-.37652a11.59019,11.59019,0,0,1,11.58955-11.58938h.00072l5.43891-4.12622,10.14781,4.12688,2.59924.00006Z" transform="translate(-316.33123 -210.99189)" fill="#2f2e41"/>
  <path d="M760.97394,447.63193l-86.82925,1.90912-8.60664,10.7583s.7443-3.79306.08184.373-17.41361,87.23032-14.24713,90.01612-6.00428,22.02-6.6778,23.193-7.93312,59.07023,0,63.831l2.98011,20.209h13.86635s13.89088-16.07513,11.09541-18.98919,5.19983-12.60407,5.5055-17.80015,3.22491-28.7636.96312-32.54239-5.31937-17.96.41839-23.45773,32.49809-73.0567,32.49809-73.0567,7.77641,79.20236,7.75814,85.42135c-.02376,8.08762,5.28725,4.08491,5.28725,11.185,0,1.43445,17.29368,38.30269,28.9164,49.82691l24.035,18.48846,11.09308-8.31981v-12.0175s-10.28024-22.29774-13.86634-25.88384-16.82739-14.5634-16.82739-19.58394-6.23333-6.76964-2.04084-13.42591,2.75806-9.52514,1.32361-12.394,1.28578-120.41494,1.28578-120.41494Z" transform="translate(-316.33123 -210.99189)" fill="#2f2e41"/>
  <circle cx="410.655" cy="41.098" r="26.238" fill="#ffb6b6"/>
  <path d="M745.72926,457.66009l7.38563-22.23281,13.28931,2.44708-8.6449,23.22807a7.84254,7.84254,0,1,1-12.03-3.44234Z" transform="translate(-316.33123 -210.99189)" fill="#ffb6b6"/>
  <path d="M592.55524,414.69389l18.09637-14.8784,9.94172,9.15184L600.901,424.01694a7.84254,7.84254,0,1,1-8.34578-9.323Z" transform="translate(-316.33123 -210.99189)" fill="#ffb6b6"/>
  <path d="M 378.685 39.28 C 381.514 40.158 384.241 40.676 386.081 38.356 C 387.92 36.035 387.44 33.382 390.176 32.264 C 392.464 31.496 394.957 31.612 397.165 32.587 C 397.562 32.735 397.95 32.902 398.329 33.068 C 398.542 32.883 398.755 32.707 398.986 32.541 C 400.725 31.304 402.872 30.781 404.985 31.08 C 403.441 31.826 402.17 33.039 401.352 34.547 C 402.11 34.926 402.878 35.305 403.654 35.629 C 410.27 38.335 417.775 37.767 423.908 34.094 C 420.876 42.081 423.233 44.928 427.68 52.222 L 427.855 52.647 C 427.412 50.734 433.226 48.524 433.226 51.298 C 432.971 54.139 432.349 56.935 431.378 59.617 C 437.081 51.029 440.446 40.981 438.237 31.339 C 437.765 29.315 437.553 27.142 436.268 25.497 C 434.983 23.861 432.616 22.899 430.749 23.824 C 429.763 10.469 414.689 3.189 403.617 10.72 C 403.324 10.919 403.037 11.127 402.757 11.344 C 400.446 13.128 398.625 15.467 396.564 17.547 C 394.502 19.627 392.062 21.522 389.178 22.04 C 387.347 22.363 385.286 22.169 383.825 23.325 C 382.134 24.665 382.115 27.022 382.124 29.287 C 383.78 29.24 385.411 29.687 386.811 30.572 C 385.098 30.615 383.441 31.197 382.078 32.236 C 382.052 32.252 382.027 32.271 382.004 32.291 C 381.505 36.1 381.708 36.904 378.685 39.28 Z" fill="#2f2e41"/>
  <path d="M370.59011,671.3208a2.26935,2.26935,0,0,1-1.64468-3.93333l.15549-.61819q-.03071-.07428-.06178-.1484a6.09417,6.09417,0,0,0-11.24139.04177c-1.83858,4.42817-4.17942,8.86389-4.75579,13.54594a18.02868,18.02868,0,0,0,.31648,6.20047,72.28149,72.28149,0,0,1-6.57515-30.02077,69.76377,69.76377,0,0,1,.43275-7.78294q.35848-3.17781.9947-6.31034a73.119,73.119,0,0,1,14.50012-30.98962,19.459,19.459,0,0,0,8.09295-8.39652,14.84306,14.84306,0,0,0,1.34992-4.05618c-.394.05168-1.48556-5.94866-1.18841-6.31679-.54906-.83317-1.53178-1.24733-2.13143-2.06035-2.98233-4.0434-7.09121-3.33741-9.23621,2.15727-4.58224,2.31266-4.62659,6.14806-1.815,9.83683,1.78877,2.34681,2.03455,5.52233,3.60408,8.03478-.16151.20671-.32944.407-.4909.61366a73.59114,73.59114,0,0,0-7.681,12.16859,30.59242,30.59242,0,0,0-1.82641-14.20958c-1.74819-4.21732-5.0249-7.76915-7.91045-11.415a6.27922,6.27922,0,0,0-11.184,3.08333q-.00885.08063-.01731.1612.6429.36267,1.25864.76991a3.0782,3.0782,0,0,1-1.24107,5.60175l-.06276.00967a30.62572,30.62572,0,0,0,.80734,4.57938c-3.7018,14.31578,4.29011,19.52989,15.70147,19.76412.25191.12916.49738.25832.74929.38109a75.11519,75.11519,0,0,0-4.04327,19.02779,71.24332,71.24332,0,0,0,.05168,11.50322l-.01939-.13562a18.82569,18.82569,0,0,0-6.4266-10.87028c-4.94561-4.06263-11.93282-5.55868-17.26826-8.82425a3.533,3.533,0,0,0-5.41121,3.43708l.02182.14261a20.67715,20.67715,0,0,1,2.31871,1.11733q.6429.36276,1.25864.76992a3.07824,3.07824,0,0,1-1.24107,5.6018l-.06282.00965c-.0452.00645-.084.01294-.12911.01943a30.65424,30.65424,0,0,0,5.63854,8.82923c2.31463,12.49712,12.256,13.68282,22.89022,10.04353h.00648a75.09324,75.09324,0,0,0,5.0444,14.72621h18.02019c.06463-.20022.12274-.40693.18089-.60717a20.47425,20.47425,0,0,1-4.98629-.297c1.337-1.64058,2.674-3.29409,4.011-4.93462a1.12094,1.12094,0,0,0,.084-.09689c.67817-.8396,1.36282-1.67283,2.041-2.51246l.00036-.001a29.99039,29.99039,0,0,0-.87876-7.63984Z" transform="translate(-316.33123 -210.99189)" fill="#f2f2f2"/>
  <path d="M316.99872,687.8181a1.18647,1.18647,0,0,0,1.19006,1.19h564.29a1.19,1.19,0,1,0,0-2.38h-564.29A1.18651,1.18651,0,0,0,316.99872,687.8181Z" transform="translate(-316.33123 -210.99189)" fill="#ccc"/>
  <path d="M503.21324,366.02229c.11108,2.27923.242,4.55993.394,6.82037h11.26147l-.16064-.11114A121.19154,121.19154,0,0,0,503.21324,366.02229Z" transform="translate(-316.33123 -210.99189)" fill="none"/>
  <path d="M410.2675,459.53694l14.06518.69836,7.80573-32.74383c17.946-4.035,22.2027-15.06934,28.65466-13.17,28.62164,8.42591,62.63757,7.53272,51.0625-4.04229-4.74591-4.74592-7.10968-20.50007-8.24835-37.43653h-87.3656Z" transform="translate(-316.33123 -210.99189)" style="stroke-width: 47px; fill: rgb(1, 90, 187);"/>
  <polygon points="198.537 161.851 260.993 205.057 270.992 195.141 227.262 152.424 198.537 161.851" style="fill: rgb(1, 90, 187);"/>
  <path d="M 524.86 345.514 L 502.855 322.038 C 502.862 321.792 502.867 321.652 502.867 321.652 L 502.196 321.335 L 495.795 314.507 C 492.115 310.554 486.984 308.27 481.584 308.181 C 480.825 308.169 480.066 308.199 479.311 308.272 L 475.913 299.95 L 447.498 293.922 L 441.856 305.279 L 430.839 311.657 C 428.29 312.51 425.94 313.87 423.932 315.656 L 422.856 316.279 L 422.935 316.606 C 419.332 320.229 417.265 325.102 417.165 330.211 L 416.251 372.701 L 416.797 378.943 L 503.607 378.388 C 503.455 376.128 503.324 368.301 503.213 366.022 C 507.165 368.046 511.002 370.286 514.708 372.731 L 520.414 376.725 L 553.02 372.843 L 524.86 345.514 Z" transform="translate(-316.33123 -210.99189)" fill="#015abb"/>
  <path d="M611.318,392.87709c2.27094,4.48822-.91931,1.46-4.48822,2.271-3.56884.811-1.83856,2.91986-1.75756,6.02912s-12.19391,9.65173-12.19391,9.65173c7.48907,2.67682,16.87048,13.68109,16.87048,13.68109s9.08459-9.57068,10.73389-10.571c1.64929-1.00037,2.5686-2.46027,7.78674-4.27161,5.21814-1.81128,3.0282-3.19025,3.40686-7.02942.3786-3.83917,1.64923-1.0003,8.97632-4.54187s1.379-2.18994,3.40686-7.02948c2.028-4.83954,1.379-2.18994,7.976-6.19116,3.96527-2.405,7.90363-5.937,13.38385-12.03284H623.60667C615.89482,383.49586,610.64372,391.54438,611.318,392.87709Z" transform="translate(-316.33123 -210.99189)" fill="#fed701"/>
  <path d="M 787.938 362.778 C 789.403 350.567 787.55 337.526 785.666 328.511 C 784.431 322.594 780.786 317.46 775.608 314.343 C 775.417 313.364 775.077 312.737 774.556 312.552 C 767.098 309.901 746.279 297.653 746.279 297.653 L 744.534 283.647 L 706.86 281.837 L 697.22 297.653 C 697.22 297.653 672.248 300.163 672.711 309.304 C 666.663 316.848 636.969 354.989 620.834 377.279 L 660.983 377.279 C 664.621 373.233 673.372 363.624 678.83 356.893 C 678.867 356.848 678.902 356.8 678.939 356.754 C 679.305 362.21 679.588 367.668 679.756 372.843 L 786.115 372.288 C 786.521 369.253 787.494 366.474 787.938 362.778 Z" transform="translate(-316.33123 -210.99189)" style="fill: rgb(254, 215, 1);"/>
  <path d="M 786.67 365.634 L 679.756 367.297 C 680.233 382 679.778 399.944 677.637 403.358 C 674.634 408.15 669.549 424.187 665.415 438.268 C 661.969 450.027 671.028 461.716 683.275 461.314 C 708.916 460.468 746.439 458.512 753.752 454.221 C 757.73 454.789 761.66 455.653 765.509 456.805 C 765.509 456.805 768.097 443.866 768.96 442.14 C 769.822 440.415 769.822 438.69 773.273 434.377 C 776.723 430.063 774.135 430.063 772.41 426.613 C 770.685 423.162 773.273 424.888 777.586 417.987 C 781.899 411.085 777.586 415.399 776.723 410.223 C 775.861 405.047 776.723 407.635 780.174 400.734 C 783.033 395.016 784.708 380.304 786.67 365.634 Z" transform="translate(-316.33123 -210.99189)" fill="#fed701"/>
  <path d="M429.15319,257.51923c-3.52921-12.86713,24.9356-23.90094,32.41042-13.539,1.03939-1.47315,4.88056-2.368,6.643-1.91607a13.74437,13.74437,0,0,1,4.69075,2.67529c1.98838,1.52743,4.049,3.10908,5.26914,5.30532,1.22921,2.18719,1.419,5.16979-.235,7.06776-1.31052,1.50934-5.17883,2.48546-7.14912,2.88314-1.37374.28018-2.53064.50613-3.5248.6688a6.7391,6.7391,0,0,1-1.175-4.45574,5.46969,5.46969,0,0,0-2.386,4.01289c-.02714.3344,11.10773,41.30387,11.10773,41.30387a24.28681,24.28681,0,0,1-4.20271,1.88892,52.84817,52.84817,0,0,1-6.55258-14.2801,45.762,45.762,0,0,0,.12654,10.1678,55.94989,55.94989,0,0,0,.958,5.63068c-13.23171,2.85606-33.13344,1.91612-41.7919-10.231l-.00436-.15087a2.067,2.067,0,0,0-3.993-.72083c-.21008.53593-.40341.99981-.57594,1.36878C416.2469,286.17883,419.50962,275.7399,429.15319,257.51923Z" transform="translate(-316.33123 -210.99189)" fill="#2f2e41"/>
  <path d="M593.27235,331.109l0,0c-.03377.0328-.06487.06731-.09825.10039a13.47172,13.47172,0,0,0-18.874-.10235l0,0a13.47215,13.47215,0,0,0-.40092,18.92054l-.00328.00319.1261.12984,0,0,18.64936,19.20183L612.003,350.587l-.05375-.05534c.03249-.03093.06627-.05964.09853-.091l0,0a13.47433,13.47433,0,0,0,.27811-19.05355l0,0A13.47433,13.47433,0,0,0,593.27235,331.109Z" transform="translate(-316.33123 -210.99189)" style="fill: rgb(246, 59, 59);"/>
</svg>